<mxfile host="65bd71144e">
    <diagram id="FxTkzUY65Is49-hpyQf2" name="Standard">
        <mxGraphModel dx="826" dy="782" grid="0" gridSize="10" guides="1" tooltips="1" connect="1" arrows="1" fold="1" page="1" pageScale="1" pageWidth="827" pageHeight="1169" math="0" shadow="0">
            <root>
                <mxCell id="0"/>
                <mxCell id="1" parent="0"/>
                <mxCell id="25" style="edgeStyle=none;sketch=1;html=1;exitX=1;exitY=0.5;exitDx=0;exitDy=0;startArrow=none;startFill=0;endArrow=open;endFill=0;" parent="1" source="2" target="19" edge="1">
                    <mxGeometry relative="1" as="geometry"/>
                </mxCell>
                <mxCell id="2" value="Client" style="html=1;sketch=1;" parent="1" vertex="1">
                    <mxGeometry x="325.5" y="169" width="110" height="50" as="geometry"/>
                </mxCell>
                <mxCell id="12" value="copy = existing.clone()" style="whiteSpace=wrap;html=1;rounded=1;arcSize=50;align=center;verticalAlign=middle;strokeWidth=1;autosize=1;spacing=4;treeFolding=1;treeMoving=1;newEdgeStyle={&quot;edgeStyle&quot;:&quot;entityRelationEdgeStyle&quot;,&quot;startArrow&quot;:&quot;none&quot;,&quot;endArrow&quot;:&quot;none&quot;,&quot;segment&quot;:10,&quot;curved&quot;:1};sketch=1;" parent="1" vertex="1">
                    <mxGeometry x="384" y="99" width="155" height="26" as="geometry"/>
                </mxCell>
                <mxCell id="14" value="" style="edgeStyle=entityRelationEdgeStyle;startArrow=none;endArrow=none;segment=10;curved=1;sketch=1;entryX=0;entryY=0.5;entryDx=0;entryDy=0;exitX=0.5;exitY=0;exitDx=0;exitDy=0;" parent="1" source="2" target="12" edge="1">
                    <mxGeometry relative="1" as="geometry">
                        <mxPoint x="445.5" y="204" as="sourcePoint"/>
                        <mxPoint x="497" y="128" as="targetPoint"/>
                    </mxGeometry>
                </mxCell>
                <mxCell id="19" value="«interface»&#10;Prototype" style="swimlane;fontStyle=1;align=center;verticalAlign=top;childLayout=stackLayout;horizontal=1;startSize=39;horizontalStack=0;resizeParent=1;resizeParentMax=0;resizeLast=0;collapsible=1;marginBottom=0;sketch=1;" parent="1" vertex="1">
                    <mxGeometry x="481" y="161.5" width="160" height="65" as="geometry">
                        <mxRectangle x="414" y="170.5" width="90" height="39" as="alternateBounds"/>
                    </mxGeometry>
                </mxCell>
                <mxCell id="23" value="+ clone(): Prototype" style="text;strokeColor=none;fillColor=none;align=left;verticalAlign=top;spacingLeft=4;spacingRight=4;overflow=hidden;rotatable=0;points=[[0,0.5],[1,0.5]];portConstraint=eastwest;sketch=1;" parent="19" vertex="1">
                    <mxGeometry y="39" width="160" height="26" as="geometry"/>
                </mxCell>
                <mxCell id="31" style="edgeStyle=none;sketch=1;html=1;exitX=0.5;exitY=0;exitDx=0;exitDy=0;entryX=0.499;entryY=1.058;entryDx=0;entryDy=0;entryPerimeter=0;startArrow=none;startFill=0;endArrow=block;endFill=0;dashed=1;" parent="1" source="26" target="23" edge="1">
                    <mxGeometry relative="1" as="geometry"/>
                </mxCell>
                <mxCell id="26" value="ConcretePrototype" style="swimlane;fontStyle=1;align=center;verticalAlign=top;childLayout=stackLayout;horizontal=1;startSize=26;horizontalStack=0;resizeParent=1;resizeParentMax=0;resizeLast=0;collapsible=1;marginBottom=0;sketch=1;" parent="1" vertex="1">
                    <mxGeometry x="466.5" y="282" width="189" height="112" as="geometry"/>
                </mxCell>
                <mxCell id="27" value="- field1" style="text;strokeColor=none;fillColor=none;align=left;verticalAlign=top;spacingLeft=4;spacingRight=4;overflow=hidden;rotatable=0;points=[[0,0.5],[1,0.5]];portConstraint=eastwest;sketch=1;" parent="26" vertex="1">
                    <mxGeometry y="26" width="189" height="26" as="geometry"/>
                </mxCell>
                <mxCell id="28" value="" style="line;strokeWidth=1;fillColor=none;align=left;verticalAlign=middle;spacingTop=-1;spacingLeft=3;spacingRight=3;rotatable=0;labelPosition=right;points=[];portConstraint=eastwest;sketch=1;" parent="26" vertex="1">
                    <mxGeometry y="52" width="189" height="8" as="geometry"/>
                </mxCell>
                <mxCell id="29" value="+ ConcretePrototype(prototype)" style="text;strokeColor=none;fillColor=none;align=left;verticalAlign=top;spacingLeft=4;spacingRight=4;overflow=hidden;rotatable=0;points=[[0,0.5],[1,0.5]];portConstraint=eastwest;sketch=1;" parent="26" vertex="1">
                    <mxGeometry y="60" width="189" height="26" as="geometry"/>
                </mxCell>
                <mxCell id="30" value="+ clone(): Prototype" style="text;strokeColor=none;fillColor=none;align=left;verticalAlign=top;spacingLeft=4;spacingRight=4;overflow=hidden;rotatable=0;points=[[0,0.5],[1,0.5]];portConstraint=eastwest;sketch=1;" parent="26" vertex="1">
                    <mxGeometry y="86" width="189" height="26" as="geometry"/>
                </mxCell>
                <mxCell id="32" value="this.field1 = prototype.field1" style="whiteSpace=wrap;html=1;rounded=1;arcSize=50;align=center;verticalAlign=middle;strokeWidth=1;autosize=1;spacing=4;treeFolding=1;treeMoving=1;newEdgeStyle={&quot;edgeStyle&quot;:&quot;entityRelationEdgeStyle&quot;,&quot;startArrow&quot;:&quot;none&quot;,&quot;endArrow&quot;:&quot;none&quot;,&quot;segment&quot;:10,&quot;curved&quot;:1};sketch=1;" parent="1" vertex="1">
                    <mxGeometry x="228" y="282" width="181" height="26" as="geometry"/>
                </mxCell>
                <mxCell id="33" value="" style="edgeStyle=entityRelationEdgeStyle;startArrow=none;endArrow=none;segment=10;curved=1;dashed=1;sketch=1;exitX=0;exitY=0.5;exitDx=0;exitDy=0;" parent="1" source="29" target="32" edge="1">
                    <mxGeometry relative="1" as="geometry">
                        <mxPoint x="255" y="309" as="sourcePoint"/>
                    </mxGeometry>
                </mxCell>
                <mxCell id="34" value="return new ConcretePrototype(this)" style="whiteSpace=wrap;html=1;rounded=1;arcSize=50;align=center;verticalAlign=middle;strokeWidth=1;autosize=1;spacing=4;treeFolding=1;treeMoving=1;newEdgeStyle={&quot;edgeStyle&quot;:&quot;entityRelationEdgeStyle&quot;,&quot;startArrow&quot;:&quot;none&quot;,&quot;endArrow&quot;:&quot;none&quot;,&quot;segment&quot;:10,&quot;curved&quot;:1};sketch=1;" parent="1" vertex="1">
                    <mxGeometry x="187" y="335" width="222" height="26" as="geometry"/>
                </mxCell>
                <mxCell id="35" value="" style="edgeStyle=entityRelationEdgeStyle;startArrow=none;endArrow=none;segment=10;curved=1;dashed=1;sketch=1;exitX=0;exitY=0.5;exitDx=0;exitDy=0;" parent="1" source="30" target="34" edge="1">
                    <mxGeometry relative="1" as="geometry">
                        <mxPoint x="191" y="378" as="sourcePoint"/>
                    </mxGeometry>
                </mxCell>
                <mxCell id="45" style="edgeStyle=none;sketch=1;html=1;exitX=0.5;exitY=0;exitDx=0;exitDy=0;entryX=0.499;entryY=1.077;entryDx=0;entryDy=0;entryPerimeter=0;startArrow=none;startFill=0;endArrow=block;endFill=0;" parent="1" source="36" target="30" edge="1">
                    <mxGeometry relative="1" as="geometry"/>
                </mxCell>
                <mxCell id="36" value="SubclassPrototype" style="swimlane;fontStyle=1;align=center;verticalAlign=top;childLayout=stackLayout;horizontal=1;startSize=26;horizontalStack=0;resizeParent=1;resizeParentMax=0;resizeLast=0;collapsible=1;marginBottom=0;sketch=1;" parent="1" vertex="1">
                    <mxGeometry x="467" y="446" width="188" height="112" as="geometry"/>
                </mxCell>
                <mxCell id="37" value="- field2" style="text;strokeColor=none;fillColor=none;align=left;verticalAlign=top;spacingLeft=4;spacingRight=4;overflow=hidden;rotatable=0;points=[[0,0.5],[1,0.5]];portConstraint=eastwest;sketch=1;" parent="36" vertex="1">
                    <mxGeometry y="26" width="188" height="26" as="geometry"/>
                </mxCell>
                <mxCell id="38" value="" style="line;strokeWidth=1;fillColor=none;align=left;verticalAlign=middle;spacingTop=-1;spacingLeft=3;spacingRight=3;rotatable=0;labelPosition=right;points=[];portConstraint=eastwest;sketch=1;" parent="36" vertex="1">
                    <mxGeometry y="52" width="188" height="8" as="geometry"/>
                </mxCell>
                <mxCell id="39" value="+ SubclassPrototype(prototype)" style="text;strokeColor=none;fillColor=none;align=left;verticalAlign=top;spacingLeft=4;spacingRight=4;overflow=hidden;rotatable=0;points=[[0,0.5],[1,0.5]];portConstraint=eastwest;sketch=1;" parent="36" vertex="1">
                    <mxGeometry y="60" width="188" height="26" as="geometry"/>
                </mxCell>
                <mxCell id="40" value="+ clone(): Prototype" style="text;strokeColor=none;fillColor=none;align=left;verticalAlign=top;spacingLeft=4;spacingRight=4;overflow=hidden;rotatable=0;points=[[0,0.5],[1,0.5]];portConstraint=eastwest;sketch=1;" parent="36" vertex="1">
                    <mxGeometry y="86" width="188" height="26" as="geometry"/>
                </mxCell>
                <mxCell id="41" value="super(prototype)&lt;br&gt;this.field2 = prototype.field2" style="whiteSpace=wrap;html=1;rounded=1;arcSize=50;align=left;verticalAlign=middle;strokeWidth=1;autosize=1;spacing=10;treeFolding=1;treeMoving=1;newEdgeStyle={&quot;edgeStyle&quot;:&quot;entityRelationEdgeStyle&quot;,&quot;startArrow&quot;:&quot;none&quot;,&quot;endArrow&quot;:&quot;none&quot;,&quot;segment&quot;:10,&quot;curved&quot;:1};sketch=1;" parent="1" vertex="1">
                    <mxGeometry x="222" y="429" width="193" height="52" as="geometry"/>
                </mxCell>
                <mxCell id="42" value="" style="edgeStyle=entityRelationEdgeStyle;startArrow=none;endArrow=none;segment=10;curved=1;dashed=1;sketch=1;exitX=0;exitY=0.5;exitDx=0;exitDy=0;" parent="1" source="39" target="41" edge="1">
                    <mxGeometry relative="1" as="geometry">
                        <mxPoint x="196" y="506" as="sourcePoint"/>
                    </mxGeometry>
                </mxCell>
                <mxCell id="43" value="return new SubclassPrototype(this)" style="whiteSpace=wrap;html=1;rounded=1;arcSize=50;align=center;verticalAlign=middle;strokeWidth=1;autosize=1;spacing=4;treeFolding=1;treeMoving=1;newEdgeStyle={&quot;edgeStyle&quot;:&quot;entityRelationEdgeStyle&quot;,&quot;startArrow&quot;:&quot;none&quot;,&quot;endArrow&quot;:&quot;none&quot;,&quot;segment&quot;:10,&quot;curved&quot;:1};sketch=1;" parent="1" vertex="1">
                    <mxGeometry x="165" y="509" width="222" height="26" as="geometry"/>
                </mxCell>
                <mxCell id="44" value="" style="edgeStyle=entityRelationEdgeStyle;startArrow=none;endArrow=none;segment=10;curved=1;dashed=1;sketch=1;exitX=0;exitY=0.5;exitDx=0;exitDy=0;" parent="1" source="40" target="43" edge="1">
                    <mxGeometry relative="1" as="geometry">
                        <mxPoint x="200" y="549" as="sourcePoint"/>
                    </mxGeometry>
                </mxCell>
            </root>
        </mxGraphModel>
    </diagram>
    <diagram id="Mk-2Jmoocc9seDM1LtOy" name="Practice">
        <mxGraphModel dx="948" dy="539" grid="0" gridSize="10" guides="1" tooltips="1" connect="1" arrows="1" fold="1" page="1" pageScale="1" pageWidth="827" pageHeight="1169" math="0" shadow="0">
            <root>
                <mxCell id="rbECHHSWVPP0E-1meutt-0"/>
                <mxCell id="rbECHHSWVPP0E-1meutt-1" parent="rbECHHSWVPP0E-1meutt-0"/>
                <mxCell id="BVe5LjmD9eII08FKaGCD-0" value="«interface»&#10;Prototype" style="swimlane;fontStyle=1;align=center;verticalAlign=top;childLayout=stackLayout;horizontal=1;startSize=37;horizontalStack=0;resizeParent=1;resizeParentMax=0;resizeLast=0;collapsible=1;marginBottom=0;sketch=1;" parent="rbECHHSWVPP0E-1meutt-1" vertex="1">
                    <mxGeometry x="219.5" y="200" width="160" height="63" as="geometry"/>
                </mxCell>
                <mxCell id="BVe5LjmD9eII08FKaGCD-3" value="+ clone(): Prototype" style="text;strokeColor=none;fillColor=none;align=left;verticalAlign=top;spacingLeft=4;spacingRight=4;overflow=hidden;rotatable=0;points=[[0,0.5],[1,0.5]];portConstraint=eastwest;sketch=1;" parent="BVe5LjmD9eII08FKaGCD-0" vertex="1">
                    <mxGeometry y="37" width="160" height="26" as="geometry"/>
                </mxCell>
                <mxCell id="BVe5LjmD9eII08FKaGCD-12" style="edgeStyle=none;html=1;exitX=0.5;exitY=0;exitDx=0;exitDy=0;entryX=0.5;entryY=1;entryDx=0;entryDy=0;endArrow=block;endFill=0;dashed=1;sketch=1;" parent="rbECHHSWVPP0E-1meutt-1" source="BVe5LjmD9eII08FKaGCD-5" target="BVe5LjmD9eII08FKaGCD-0" edge="1">
                    <mxGeometry relative="1" as="geometry"/>
                </mxCell>
                <mxCell id="BVe5LjmD9eII08FKaGCD-5" value="DigistructableGun" style="swimlane;fontStyle=1;align=center;verticalAlign=top;childLayout=stackLayout;horizontal=1;startSize=26;horizontalStack=0;resizeParent=1;resizeParentMax=0;resizeLast=0;collapsible=1;marginBottom=0;sketch=1;" parent="rbECHHSWVPP0E-1meutt-1" vertex="1">
                    <mxGeometry x="124.5" y="312" width="350" height="252" as="geometry">
                        <mxRectangle x="124.5" y="312" width="124" height="26" as="alternateBounds"/>
                    </mxGeometry>
                </mxCell>
                <mxCell id="8MtP03T2REYPSIjYEVeL-4" value="- ammo: number" style="text;strokeColor=none;fillColor=none;align=left;verticalAlign=top;spacingLeft=4;spacingRight=4;overflow=hidden;rotatable=0;points=[[0,0.5],[1,0.5]];portConstraint=eastwest;sketch=1;" vertex="1" parent="BVe5LjmD9eII08FKaGCD-5">
                    <mxGeometry y="26" width="350" height="26" as="geometry"/>
                </mxCell>
                <mxCell id="BVe5LjmD9eII08FKaGCD-6" value="- magSize: number" style="text;strokeColor=none;fillColor=none;align=left;verticalAlign=top;spacingLeft=4;spacingRight=4;overflow=hidden;rotatable=0;points=[[0,0.5],[1,0.5]];portConstraint=eastwest;sketch=1;" parent="BVe5LjmD9eII08FKaGCD-5" vertex="1">
                    <mxGeometry y="52" width="350" height="26" as="geometry"/>
                </mxCell>
                <mxCell id="BVe5LjmD9eII08FKaGCD-9" value="- damage: number" style="text;strokeColor=none;fillColor=none;align=left;verticalAlign=top;spacingLeft=4;spacingRight=4;overflow=hidden;rotatable=0;points=[[0,0.5],[1,0.5]];portConstraint=eastwest;sketch=1;" parent="BVe5LjmD9eII08FKaGCD-5" vertex="1">
                    <mxGeometry y="78" width="350" height="26" as="geometry"/>
                </mxCell>
                <mxCell id="BVe5LjmD9eII08FKaGCD-7" value="" style="line;strokeWidth=1;fillColor=none;align=left;verticalAlign=middle;spacingTop=-1;spacingLeft=3;spacingRight=3;rotatable=0;labelPosition=right;points=[];portConstraint=eastwest;sketch=1;" parent="BVe5LjmD9eII08FKaGCD-5" vertex="1">
                    <mxGeometry y="104" width="350" height="8" as="geometry"/>
                </mxCell>
                <mxCell id="RYm1YCc_vMUlNIzSoxjz-2" value="+ DigistrutableGun(magSize: number, damage: number)" style="text;strokeColor=none;fillColor=none;align=left;verticalAlign=top;spacingLeft=4;spacingRight=4;overflow=hidden;rotatable=0;points=[[0,0.5],[1,0.5]];portConstraint=eastwest;sketch=1;" vertex="1" parent="BVe5LjmD9eII08FKaGCD-5">
                    <mxGeometry y="112" width="350" height="28" as="geometry"/>
                </mxCell>
                <mxCell id="8MtP03T2REYPSIjYEVeL-0" value="+ DigistrutableGun(another: DigistructableGun)" style="text;strokeColor=none;fillColor=none;align=left;verticalAlign=top;spacingLeft=4;spacingRight=4;overflow=hidden;rotatable=0;points=[[0,0.5],[1,0.5]];portConstraint=eastwest;sketch=1;" vertex="1" parent="BVe5LjmD9eII08FKaGCD-5">
                    <mxGeometry y="140" width="350" height="28" as="geometry"/>
                </mxCell>
                <mxCell id="BVe5LjmD9eII08FKaGCD-11" value="+ shoot()" style="text;strokeColor=none;fillColor=none;align=left;verticalAlign=top;spacingLeft=4;spacingRight=4;overflow=hidden;rotatable=0;points=[[0,0.5],[1,0.5]];portConstraint=eastwest;sketch=1;" parent="BVe5LjmD9eII08FKaGCD-5" vertex="1">
                    <mxGeometry y="168" width="350" height="28" as="geometry"/>
                </mxCell>
                <mxCell id="BVe5LjmD9eII08FKaGCD-13" value="+ reload()" style="text;strokeColor=none;fillColor=none;align=left;verticalAlign=top;spacingLeft=4;spacingRight=4;overflow=hidden;rotatable=0;points=[[0,0.5],[1,0.5]];portConstraint=eastwest;sketch=1;" parent="BVe5LjmD9eII08FKaGCD-5" vertex="1">
                    <mxGeometry y="196" width="350" height="28" as="geometry"/>
                </mxCell>
                <mxCell id="BVe5LjmD9eII08FKaGCD-8" value="+ clone(): DigistrutableGun" style="text;strokeColor=none;fillColor=none;align=left;verticalAlign=top;spacingLeft=4;spacingRight=4;overflow=hidden;rotatable=0;points=[[0,0.5],[1,0.5]];portConstraint=eastwest;fontStyle=0;sketch=1;" parent="BVe5LjmD9eII08FKaGCD-5" vertex="1">
                    <mxGeometry y="224" width="350" height="28" as="geometry"/>
                </mxCell>
                <mxCell id="8MtP03T2REYPSIjYEVeL-1" style="edgeStyle=orthogonalEdgeStyle;rounded=0;html=1;exitX=0.5;exitY=0;exitDx=0;exitDy=0;entryX=0.499;entryY=1.012;entryDx=0;entryDy=0;entryPerimeter=0;endArrow=block;endFill=0;sketch=1;" edge="1" parent="rbECHHSWVPP0E-1meutt-1" source="BVe5LjmD9eII08FKaGCD-14" target="BVe5LjmD9eII08FKaGCD-8">
                    <mxGeometry relative="1" as="geometry"/>
                </mxCell>
                <mxCell id="BVe5LjmD9eII08FKaGCD-14" value="TedioreGun" style="swimlane;fontStyle=1;align=center;verticalAlign=top;childLayout=stackLayout;horizontal=1;startSize=26;horizontalStack=0;resizeParent=1;resizeParentMax=0;resizeLast=0;collapsible=1;marginBottom=0;sketch=1;" parent="rbECHHSWVPP0E-1meutt-1" vertex="1">
                    <mxGeometry x="81" y="639" width="437" height="172" as="geometry"/>
                </mxCell>
                <mxCell id="BVe5LjmD9eII08FKaGCD-16" value="- explosiveDamage: number" style="text;strokeColor=none;fillColor=none;align=left;verticalAlign=top;spacingLeft=4;spacingRight=4;overflow=hidden;rotatable=0;points=[[0,0.5],[1,0.5]];portConstraint=eastwest;sketch=1;" parent="BVe5LjmD9eII08FKaGCD-14" vertex="1">
                    <mxGeometry y="26" width="437" height="26" as="geometry"/>
                </mxCell>
                <mxCell id="BVe5LjmD9eII08FKaGCD-17" value="" style="line;strokeWidth=1;fillColor=none;align=left;verticalAlign=middle;spacingTop=-1;spacingLeft=3;spacingRight=3;rotatable=0;labelPosition=right;points=[];portConstraint=eastwest;sketch=1;" parent="BVe5LjmD9eII08FKaGCD-14" vertex="1">
                    <mxGeometry y="52" width="437" height="8" as="geometry"/>
                </mxCell>
                <mxCell id="RYm1YCc_vMUlNIzSoxjz-3" value="+ TedioreGun(magSize: number, damage: number, explosiveDamage: number)" style="text;strokeColor=none;fillColor=none;align=left;verticalAlign=top;spacingLeft=4;spacingRight=4;overflow=hidden;rotatable=0;points=[[0,0.5],[1,0.5]];portConstraint=eastwest;sketch=1;" vertex="1" parent="BVe5LjmD9eII08FKaGCD-14">
                    <mxGeometry y="60" width="437" height="28" as="geometry"/>
                </mxCell>
                <mxCell id="8MtP03T2REYPSIjYEVeL-2" value="+ TedioreGun(another: TedioreGun)" style="text;strokeColor=none;fillColor=none;align=left;verticalAlign=top;spacingLeft=4;spacingRight=4;overflow=hidden;rotatable=0;points=[[0,0.5],[1,0.5]];portConstraint=eastwest;sketch=1;" vertex="1" parent="BVe5LjmD9eII08FKaGCD-14">
                    <mxGeometry y="88" width="437" height="28" as="geometry"/>
                </mxCell>
                <mxCell id="BVe5LjmD9eII08FKaGCD-18" value="+ launchGrenade()" style="text;strokeColor=none;fillColor=none;align=left;verticalAlign=top;spacingLeft=4;spacingRight=4;overflow=hidden;rotatable=0;points=[[0,0.5],[1,0.5]];portConstraint=eastwest;sketch=1;" parent="BVe5LjmD9eII08FKaGCD-14" vertex="1">
                    <mxGeometry y="116" width="437" height="28" as="geometry"/>
                </mxCell>
                <mxCell id="BVe5LjmD9eII08FKaGCD-20" value="+ clone(): TedioreGun" style="text;strokeColor=none;fillColor=none;align=left;verticalAlign=top;spacingLeft=4;spacingRight=4;overflow=hidden;rotatable=0;points=[[0,0.5],[1,0.5]];portConstraint=eastwest;sketch=1;" parent="BVe5LjmD9eII08FKaGCD-14" vertex="1">
                    <mxGeometry y="144" width="437" height="28" as="geometry"/>
                </mxCell>
                <mxCell id="BVe5LjmD9eII08FKaGCD-23" style="edgeStyle=none;html=1;exitX=0;exitY=0.5;exitDx=0;exitDy=0;entryX=1;entryY=0.5;entryDx=0;entryDy=0;endArrow=open;endFill=0;sketch=1;" parent="rbECHHSWVPP0E-1meutt-1" source="BVe5LjmD9eII08FKaGCD-22" target="BVe5LjmD9eII08FKaGCD-0" edge="1">
                    <mxGeometry relative="1" as="geometry"/>
                </mxCell>
                <mxCell id="BVe5LjmD9eII08FKaGCD-22" value="Client" style="html=1;fontStyle=1;sketch=1;" parent="rbECHHSWVPP0E-1meutt-1" vertex="1">
                    <mxGeometry x="430" y="206.5" width="110" height="50" as="geometry"/>
                </mxCell>
                <mxCell id="5IprjJAinOA7O6tESqid-7" style="edgeStyle=orthogonalEdgeStyle;html=1;exitX=0.5;exitY=0;exitDx=0;exitDy=0;endArrow=block;endFill=0;rounded=0;entryX=0.499;entryY=1.005;entryDx=0;entryDy=0;entryPerimeter=0;sketch=1;" parent="rbECHHSWVPP0E-1meutt-1" source="5IprjJAinOA7O6tESqid-1" target="BVe5LjmD9eII08FKaGCD-8" edge="1">
                    <mxGeometry relative="1" as="geometry">
                        <mxPoint x="238" y="520" as="targetPoint"/>
                    </mxGeometry>
                </mxCell>
                <mxCell id="5IprjJAinOA7O6tESqid-1" value="FireBall" style="swimlane;fontStyle=1;align=center;verticalAlign=top;childLayout=stackLayout;horizontal=1;startSize=26;horizontalStack=0;resizeParent=1;resizeParentMax=0;resizeLast=0;collapsible=1;marginBottom=0;sketch=1;" parent="rbECHHSWVPP0E-1meutt-1" vertex="1">
                    <mxGeometry x="543" y="639" width="208" height="138" as="geometry"/>
                </mxCell>
                <mxCell id="RYm1YCc_vMUlNIzSoxjz-4" value="+ FireBall(damage: number)" style="text;strokeColor=none;fillColor=none;align=left;verticalAlign=top;spacingLeft=4;spacingRight=4;overflow=hidden;rotatable=0;points=[[0,0.5],[1,0.5]];portConstraint=eastwest;sketch=1;" vertex="1" parent="5IprjJAinOA7O6tESqid-1">
                    <mxGeometry y="26" width="208" height="28" as="geometry"/>
                </mxCell>
                <mxCell id="8MtP03T2REYPSIjYEVeL-3" value="+ FireBall(another: FireBall)" style="text;strokeColor=none;fillColor=none;align=left;verticalAlign=top;spacingLeft=4;spacingRight=4;overflow=hidden;rotatable=0;points=[[0,0.5],[1,0.5]];portConstraint=eastwest;sketch=1;" vertex="1" parent="5IprjJAinOA7O6tESqid-1">
                    <mxGeometry y="54" width="208" height="28" as="geometry"/>
                </mxCell>
                <mxCell id="RYm1YCc_vMUlNIzSoxjz-5" value="+ shoot()" style="text;strokeColor=none;fillColor=none;align=left;verticalAlign=top;spacingLeft=4;spacingRight=4;overflow=hidden;rotatable=0;points=[[0,0.5],[1,0.5]];portConstraint=eastwest;sketch=1;" vertex="1" parent="5IprjJAinOA7O6tESqid-1">
                    <mxGeometry y="82" width="208" height="28" as="geometry"/>
                </mxCell>
                <mxCell id="5IprjJAinOA7O6tESqid-5" value="+ clone(): FireBall" style="text;strokeColor=none;fillColor=none;align=left;verticalAlign=top;spacingLeft=4;spacingRight=4;overflow=hidden;rotatable=0;points=[[0,0.5],[1,0.5]];portConstraint=eastwest;sketch=1;" parent="5IprjJAinOA7O6tESqid-1" vertex="1">
                    <mxGeometry y="110" width="208" height="28" as="geometry"/>
                </mxCell>
                <mxCell id="RYm1YCc_vMUlNIzSoxjz-0" style="edgeStyle=orthogonalEdgeStyle;rounded=0;sketch=1;html=1;exitX=0;exitY=0.5;exitDx=0;exitDy=0;entryX=0;entryY=0.5;entryDx=0;entryDy=0;endArrow=block;endFill=0;dashed=1;" edge="1" parent="rbECHHSWVPP0E-1meutt-1" source="8MtP03T2REYPSIjYEVeL-2" target="BVe5LjmD9eII08FKaGCD-0">
                    <mxGeometry relative="1" as="geometry"/>
                </mxCell>
                <mxCell id="RYm1YCc_vMUlNIzSoxjz-1" style="edgeStyle=orthogonalEdgeStyle;rounded=0;sketch=1;html=1;exitX=1;exitY=0.5;exitDx=0;exitDy=0;entryX=0.5;entryY=0;entryDx=0;entryDy=0;dashed=1;endArrow=block;endFill=0;" edge="1" parent="rbECHHSWVPP0E-1meutt-1" source="8MtP03T2REYPSIjYEVeL-3" target="BVe5LjmD9eII08FKaGCD-0">
                    <mxGeometry relative="1" as="geometry">
                        <Array as="points">
                            <mxPoint x="758" y="680"/>
                            <mxPoint x="758" y="160"/>
                            <mxPoint x="300" y="160"/>
                        </Array>
                    </mxGeometry>
                </mxCell>
            </root>
        </mxGraphModel>
    </diagram>
</mxfile>